<svg id="svg" version="1.1" xmlns="http://www.w3.org/2000/svg" xmlns:xlink="http://www.w3.org/1999/xlink" width="400" height="401.3556903317874" viewBox="0, 0, 400,401.3556903317874"><g id="svgg"><path id="path0" d="M271.267 30.552 C 246.198 33.205,235.315 64.136,253.211 81.870 C 272.260 100.745,304.406 87.307,304.389 60.477 C 304.377 42.536,289.032 28.672,271.267 30.552 M341.687 204.620 C 323.695 205.935,316.770 229.542,331.394 239.707 L 332.633 240.569 321.651 240.569 L 310.668 240.569 311.736 239.124 C 319.150 229.099,313.681 216.579,301.882 216.565 C 289.785 216.551,284.079 230.433,292.509 239.368 L 293.563 240.485 288.939 240.485 C 285.166 240.485,284.057 240.539,282.904 240.781 C 279.720 241.446,275.246 242.956,274.629 243.573 L 274.288 243.915 287.123 243.915 L 299.958 243.915 299.958 239.847 L 299.958 235.780 300.418 235.342 C 301.034 234.757,301.643 234.624,302.257 234.942 C 303.263 235.463,303.304 235.655,303.304 239.894 L 303.304 243.747 322.459 243.747 L 341.614 243.747 341.614 239.878 C 341.614 236.290,341.639 235.968,341.952 235.462 C 342.706 234.241,344.109 234.187,344.935 235.348 C 345.279 235.830,345.295 236.030,345.295 239.773 L 345.295 243.693 353.102 243.804 C 357.395 243.865,363.926 243.913,367.614 243.912 L 374.320 243.909 373.484 243.412 C 370.610 241.705,368.302 241.127,362.442 240.646 C 359.774 240.427,357.241 240.202,356.814 240.144 L 356.037 240.040 357.487 238.590 C 370.602 225.469,360.274 203.261,341.687 204.620 " stroke="none" fill="#fbfbfb" fill-rule="evenodd"></path><path id="path1" d="M193.392 1.664 C 186.987 1.933,177.811 2.776,173.317 3.509 C 172.811 3.592,172.095 3.698,171.727 3.744 C 170.508 3.899,165.772 4.703,164.199 5.022 C 163.739 5.115,162.610 5.340,161.690 5.521 C 159.991 5.855,158.845 6.100,156.587 6.612 C 155.897 6.768,155.069 6.952,154.747 7.021 C 154.425 7.090,153.107 7.429,151.819 7.775 C 150.531 8.120,149.214 8.462,148.892 8.533 C 148.570 8.604,148.080 8.737,147.804 8.829 C 147.528 8.921,146.813 9.127,146.215 9.287 C 145.617 9.447,144.826 9.677,144.458 9.798 C 144.090 9.918,142.547 10.407,141.029 10.883 C 138.386 11.711,132.722 13.639,131.493 14.128 C 123.969 17.124,122.733 17.630,121.037 18.403 C 120.669 18.571,119.992 18.874,119.532 19.077 C 114.687 21.212,107.852 24.721,102.049 28.052 C 99.393 29.577,98.228 30.274,96.780 31.201 C 95.859 31.790,94.881 32.399,94.605 32.553 C 93.824 32.990,89.080 36.179,86.683 37.878 C 86.283 38.162,85.836 38.469,85.690 38.561 C 85.084 38.944,77.133 44.950,76.955 45.159 C 76.909 45.213,76.458 45.594,75.951 46.006 C 75.445 46.417,74.994 46.793,74.948 46.841 C 74.902 46.888,74.187 47.488,73.358 48.174 C 71.369 49.821,67.123 53.588,64.676 55.876 C 59.651 60.575,55.667 64.580,52.529 68.087 C 51.748 68.961,50.816 69.994,50.458 70.383 C 50.101 70.772,49.691 71.257,49.548 71.461 C 49.405 71.665,49.171 71.952,49.027 72.099 C 48.884 72.246,48.465 72.732,48.097 73.180 C 47.729 73.627,47.352 74.076,47.258 74.178 C 47.165 74.279,46.678 74.889,46.175 75.533 C 45.672 76.177,45.218 76.742,45.166 76.788 C 45.113 76.834,44.700 77.361,44.247 77.959 C 43.795 78.557,43.342 79.122,43.242 79.214 C 43.142 79.306,42.726 79.833,42.317 80.385 C 41.908 80.937,41.535 81.426,41.488 81.472 C 41.442 81.518,41.182 81.857,40.911 82.225 C 40.641 82.593,40.375 82.932,40.320 82.978 C 40.266 83.024,39.912 83.520,39.534 84.080 C 37.309 87.377,37.630 88.007,41.192 87.338 C 46.961 86.256,46.541 86.294,52.698 86.276 C 65.865 86.238,72.801 87.558,78.545 91.195 C 78.913 91.428,79.477 91.763,79.798 91.941 C 81.721 92.999,85.701 96.397,88.937 99.742 L 90.798 101.665 90.903 100.662 C 90.961 100.110,91.008 97.204,91.008 94.204 C 91.008 91.204,91.057 82.915,91.117 75.784 L 91.226 62.819 91.911 62.133 C 95.367 58.675,104.543 61.713,109.099 67.824 C 111.720 71.338,112.673 74.666,112.673 80.301 C 112.673 87.225,109.985 90.594,103.392 91.934 C 97.367 93.159,94.531 95.925,92.712 102.354 C 92.417 103.396,92.407 103.564,92.624 103.745 C 92.820 103.907,94.771 106.252,96.943 108.934 C 100.874 113.790,104.410 119.941,106.592 125.721 C 107.273 127.526,108.260 133.232,108.993 139.607 C 109.046 140.067,109.144 140.818,109.210 141.276 L 109.330 142.108 111.419 142.648 C 112.569 142.946,113.998 143.314,114.596 143.467 C 121.027 145.116,127.434 147.146,129.119 148.070 C 129.608 148.338,130.038 148.557,130.076 148.557 C 130.113 148.557,130.168 138.450,130.199 126.098 C 130.250 105.817,130.283 103.517,130.536 102.384 C 130.690 101.694,130.940 100.565,131.091 99.875 C 131.242 99.184,131.436 98.381,131.522 98.089 C 131.608 97.797,131.713 97.364,131.756 97.127 C 132.201 94.675,135.525 86.783,136.997 84.687 C 137.172 84.437,137.597 83.781,137.941 83.229 C 143.839 73.757,154.408 67.147,166.792 65.182 C 175.340 63.826,181.441 64.283,188.557 66.813 C 200.685 71.124,209.042 79.135,214.707 91.881 C 218.942 101.408,219.016 102.840,218.608 167.127 C 218.537 178.306,218.499 188.422,218.524 189.606 L 218.570 191.759 219.851 190.443 C 220.555 189.718,221.404 188.787,221.738 188.373 C 222.071 187.959,222.494 187.442,222.679 187.223 C 222.863 187.005,223.294 186.480,223.636 186.057 C 223.978 185.634,224.382 185.135,224.535 184.948 C 224.687 184.762,226.216 182.877,227.932 180.761 C 229.647 178.645,231.180 176.763,231.336 176.579 C 231.493 176.395,232.180 175.567,232.864 174.739 C 233.547 173.910,234.374 172.929,234.702 172.557 C 235.031 172.185,235.675 171.438,236.136 170.897 C 236.596 170.355,237.047 169.829,237.139 169.728 C 237.231 169.627,237.716 169.057,238.217 168.461 C 238.718 167.865,239.245 167.259,239.388 167.114 C 239.531 166.969,240.138 166.296,240.736 165.618 C 243.010 163.042,243.756 162.255,247.392 158.595 C 249.448 156.524,252.072 154.003,253.221 152.990 C 254.371 151.978,255.694 150.811,256.161 150.397 C 256.628 149.983,257.169 149.536,257.363 149.403 C 257.558 149.271,257.754 149.120,257.800 149.069 C 258.284 148.529,263.246 144.864,265.574 143.328 C 266.681 142.597,267.778 141.866,268.011 141.703 C 268.937 141.055,273.518 138.390,275.868 137.131 C 279.824 135.012,287.154 131.594,289.921 130.579 C 290.243 130.461,291.146 130.125,291.928 129.833 C 298.972 127.203,304.005 125.961,313.258 124.570 C 324.911 122.817,337.512 122.983,349.979 125.054 C 350.761 125.184,352.116 125.410,352.990 125.555 C 355.023 125.892,359.096 126.720,361.355 127.254 C 362.321 127.483,363.242 127.697,363.400 127.731 C 365.915 128.264,372.249 130.307,374.404 131.280 C 378.112 132.954,380.029 134.068,382.936 136.234 C 384.178 137.160,385.232 137.965,385.278 138.022 C 385.861 138.750,387.376 139.248,387.559 138.772 C 387.655 138.522,387.286 136.573,386.877 135.174 C 386.755 134.760,386.524 133.931,386.363 133.333 C 383.377 122.264,378.230 110.280,371.832 99.499 C 370.808 97.774,369.893 96.231,369.798 96.070 C 368.860 94.476,364.639 88.157,363.594 86.782 C 363.190 86.252,362.861 85.782,362.861 85.738 C 362.861 85.694,362.753 85.526,362.620 85.364 C 362.488 85.202,361.794 84.279,361.077 83.312 C 360.361 82.346,359.683 81.443,359.572 81.305 C 359.460 81.167,358.596 80.075,357.652 78.879 C 356.707 77.683,355.890 76.667,355.837 76.621 C 355.783 76.575,355.441 76.161,355.076 75.701 C 354.711 75.240,354.371 74.826,354.321 74.780 C 354.270 74.734,353.596 73.944,352.823 73.024 C 352.050 72.104,351.374 71.313,351.321 71.267 C 351.268 71.221,350.593 70.468,349.822 69.594 C 344.872 63.987,336.202 55.318,331.168 50.941 C 330.533 50.389,329.932 49.861,329.833 49.768 C 329.528 49.481,327.156 47.459,326.461 46.894 C 326.100 46.601,325.203 45.861,324.467 45.250 C 323.731 44.639,322.225 43.453,321.121 42.614 C 320.017 41.775,319.076 41.046,319.030 40.995 C 318.984 40.944,318.513 40.583,317.984 40.192 C 317.455 39.801,316.627 39.188,316.144 38.829 C 313.634 36.963,307.268 32.666,304.642 31.065 C 303.584 30.419,302.229 29.576,301.631 29.191 C 301.033 28.805,300.092 28.241,299.540 27.937 C 298.988 27.632,298.255 27.207,297.912 26.992 C 297.569 26.776,297.253 26.600,297.210 26.600 C 297.167 26.600,296.658 26.321,296.078 25.981 C 291.633 23.372,282.339 18.856,275.784 16.121 C 275.232 15.891,274.630 15.638,274.446 15.559 C 274.262 15.480,273.208 15.065,272.104 14.637 C 271.000 14.210,269.833 13.756,269.511 13.629 C 269.189 13.502,268.022 13.090,266.918 12.712 C 265.813 12.335,264.631 11.919,264.289 11.789 C 261.238 10.623,253.594 8.393,247.679 6.943 C 244.520 6.169,243.759 5.997,242.158 5.696 C 241.698 5.610,240.630 5.388,239.785 5.204 C 238.553 4.935,235.141 4.330,231.720 3.773 C 227.099 3.021,220.461 2.303,214.555 1.917 C 213.634 1.857,212.656 1.780,212.380 1.746 C 211.246 1.608,196.259 1.543,193.392 1.664 M280.134 30.947 C 303.415 35.559,312.578 64.208,296.222 81.249 C 278.054 100.177,246.678 88.912,244.416 62.648 C 242.750 43.303,260.953 27.147,280.134 30.947 M303.209 239.816 C 303.209 242.024,303.233 242.905,303.262 241.772 C 303.291 240.640,303.291 238.833,303.262 237.757 C 303.233 236.681,303.209 237.608,303.209 239.816 M295.985 348.932 C 296.514 348.965,297.380 348.965,297.909 348.932 C 298.438 348.898,298.005 348.871,296.947 348.871 C 295.889 348.871,295.456 348.898,295.985 348.932 M279.172 349.093 C 279.379 349.133,279.718 349.133,279.925 349.093 C 280.132 349.054,279.962 349.021,279.548 349.021 C 279.134 349.021,278.965 349.054,279.172 349.093 " stroke="none" fill="#64a2c4" fill-rule="evenodd"></path><path id="path2" d="M91.250 68.089 C 91.250 70.987,91.273 72.173,91.300 70.724 C 91.328 69.274,91.328 66.903,91.300 65.454 C 91.273 64.005,91.250 65.190,91.250 68.089 M107.319 65.914 C 107.772 66.374,108.181 66.750,108.227 66.750 C 108.273 66.750,107.940 66.374,107.486 65.914 C 107.033 65.454,106.625 65.077,106.579 65.077 C 106.533 65.077,106.866 65.454,107.319 65.914 M91.070 88.499 C 91.070 89.465,91.097 89.860,91.131 89.377 C 91.165 88.894,91.165 88.103,91.131 87.620 C 91.097 87.137,91.070 87.532,91.070 88.499 M109.736 88.791 L 109.159 89.419 109.787 88.842 C 110.371 88.306,110.491 88.164,110.363 88.164 C 110.335 88.164,110.053 88.446,109.736 88.791 M90.889 101.129 C 90.890 101.589,90.922 101.758,90.961 101.503 C 90.999 101.249,90.998 100.873,90.958 100.667 C 90.919 100.461,90.887 100.669,90.889 101.129 M49.184 108.745 C 38.630 109.646,26.680 116.562,20.164 125.539 C 19.891 125.915,19.619 126.261,19.558 126.307 C 19.359 126.459,17.286 129.713,16.468 131.159 C 16.025 131.941,15.257 133.258,14.761 134.086 C 12.763 137.422,10.900 141.819,9.729 145.964 C 9.546 146.608,9.212 147.775,8.985 148.557 C 8.113 151.564,6.916 156.764,6.598 158.929 C 6.551 159.251,6.442 159.864,6.357 160.291 C 5.702 163.560,4.916 170.489,3.930 181.681 C 3.788 183.292,3.563 185.813,3.430 187.286 C 3.296 188.758,3.072 191.355,2.931 193.057 C 2.791 194.760,2.636 196.623,2.588 197.198 C 2.486 198.415,2.429 198.381,3.494 197.753 C 9.941 193.952,15.399 188.725,18.441 183.438 C 20.170 180.434,23.735 174.949,24.257 174.488 C 24.310 174.442,24.646 173.990,25.006 173.484 C 26.606 171.232,31.509 165.664,33.393 163.960 C 33.843 163.553,34.704 162.759,35.307 162.195 C 41.329 156.558,51.360 150.418,59.670 147.281 C 69.283 143.651,75.231 142.339,86.134 141.441 C 88.610 141.236,88.704 140.351,86.913 134.086 C 86.426 132.384,86.403 132.317,85.578 130.207 C 80.036 116.032,65.338 107.364,49.184 108.745 M337.014 191.145 C 336.646 191.180,335.328 191.293,334.086 191.396 C 322.439 192.362,310.703 196.487,302.049 202.658 C 299.920 204.176,294.174 208.516,293.936 208.786 C 293.890 208.838,292.912 209.630,291.763 210.547 C 289.384 212.444,289.277 212.531,288.237 213.409 C 287.818 213.763,287.145 214.316,286.743 214.638 C 286.341 214.960,284.689 216.317,283.073 217.653 C 281.456 218.988,279.900 220.268,279.615 220.497 C 277.670 222.053,276.609 222.915,276.537 222.998 C 276.491 223.051,275.927 223.507,275.283 224.011 C 274.640 224.515,274.000 225.021,273.861 225.135 C 273.369 225.543,269.128 228.735,267.587 229.858 C 267.127 230.193,266.186 230.879,265.496 231.382 C 263.019 233.187,255.013 238.791,251.694 241.043 C 249.569 242.485,247.595 243.916,247.595 244.014 C 247.595 244.051,253.613 244.082,260.967 244.082 L 274.340 244.082 274.450 243.735 C 274.582 243.320,275.362 242.964,278.294 241.983 C 282.352 240.625,283.318 240.486,288.708 240.486 C 291.307 240.485,293.434 240.456,293.434 240.420 C 293.434 240.384,292.888 239.782,292.221 239.082 C 284.026 230.479,290.019 216.447,301.882 216.460 C 313.675 216.473,319.245 229.351,311.726 239.221 C 311.234 239.866,310.832 240.433,310.832 240.481 C 310.832 240.529,315.707 240.565,321.665 240.560 C 331.905 240.552,332.474 240.536,332.085 240.267 C 314.394 228.083,326.046 200.843,347.233 204.852 C 359.357 207.145,366.601 220.383,362.008 231.852 C 360.996 234.380,359.625 236.446,357.530 238.603 C 356.748 239.408,356.196 240.067,356.303 240.067 C 356.410 240.067,357.760 240.183,359.303 240.324 C 360.846 240.466,363.162 240.652,364.450 240.739 C 367.776 240.962,371.127 241.932,373.317 243.306 L 374.153 243.831 385.135 243.915 L 396.116 243.998 396.407 242.576 C 396.868 240.323,397.286 237.960,398.247 232.178 C 398.773 229.017,398.786 229.093,397.067 225.649 C 392.737 216.976,387.613 210.340,381.179 205.076 C 376.933 201.601,370.200 197.640,365.715 195.978 C 365.387 195.857,364.705 195.598,364.199 195.403 C 356.482 192.434,344.001 190.479,337.014 191.145 M341.653 239.773 L 341.614 243.746 322.334 243.789 L 303.053 243.832 322.339 243.874 C 337.818 243.907,341.641 243.873,341.707 243.702 C 341.751 243.585,341.766 241.759,341.740 239.645 L 341.691 235.801 341.653 239.773 M347.846 243.873 C 349.295 243.900,351.667 243.900,353.116 243.873 C 354.565 243.845,353.379 243.822,350.481 243.822 C 347.583 243.822,346.397 243.845,347.846 243.873 M149.603 361.638 C 149.764 361.680,150.027 361.680,150.188 361.638 C 150.349 361.596,150.217 361.561,149.895 361.561 C 149.573 361.561,149.442 361.596,149.603 361.638 M101.213 371.635 C 101.213 371.681,101.439 371.836,101.715 371.978 C 101.991 372.121,102.217 372.200,102.217 372.154 C 102.217 372.108,101.991 371.954,101.715 371.811 C 101.439 371.668,101.213 371.589,101.213 371.635 " stroke="none" fill="#3b7ba7" fill-rule="evenodd"></path><path id="path3" d="M94.289 60.903 C 93.350 61.139,92.105 61.858,91.712 62.389 C 91.379 62.840,91.370 63.187,91.170 82.364 L 90.967 101.879 91.535 102.508 C 92.331 103.389,92.376 103.374,92.721 102.115 C 94.344 96.192,97.969 92.620,103.060 91.929 C 111.695 90.755,115.215 82.078,111.240 71.768 C 108.682 65.133,99.883 59.493,94.289 60.903 M170.573 88.175 C 161.665 90.094,154.515 97.306,153.025 105.875 C 152.846 106.905,152.807 112.503,152.824 134.839 L 152.846 162.526 153.217 163.473 C 153.656 164.592,154.073 165.139,156.131 167.292 C 157.557 168.784,158.681 170.034,160.118 171.727 C 160.430 172.095,160.725 172.434,160.773 172.480 C 160.822 172.526,161.272 173.091,161.773 173.735 C 162.275 174.379,162.726 174.944,162.776 174.990 C 162.924 175.126,165.690 178.877,165.872 179.187 C 165.964 179.344,166.623 180.342,167.336 181.404 C 168.049 182.467,168.632 183.386,168.632 183.446 C 168.632 183.507,168.858 183.891,169.134 184.300 C 169.410 184.709,169.636 185.072,169.636 185.105 C 169.636 185.139,169.970 185.732,170.379 186.423 C 173.436 191.594,176.629 199.583,178.177 205.936 C 180.637 216.026,180.640 216.082,180.762 250.516 C 180.815 265.602,180.890 277.976,180.928 278.014 C 181.189 278.275,187.206 276.769,189.377 275.899 C 189.607 275.807,190.209 275.566,190.715 275.363 C 194.982 273.653,196.548 272.478,196.918 270.710 C 197.307 268.850,196.956 107.710,196.559 105.730 C 195.530 100.602,192.860 95.913,189.367 93.099 C 188.796 92.639,188.245 92.184,188.142 92.087 C 184.667 88.830,176.242 86.954,170.573 88.175 M326.391 145.803 C 326.161 145.835,324.881 145.944,323.547 146.045 C 320.088 146.309,316.299 146.817,312.756 147.492 C 310.416 147.938,305.839 149.046,304.249 149.551 C 303.960 149.644,302.744 150.030,301.547 150.411 C 299.673 151.007,296.428 152.218,294.060 153.205 C 287.089 156.110,276.636 162.633,271.080 167.545 C 270.976 167.637,270.412 168.126,269.825 168.632 C 268.006 170.203,264.825 173.196,262.422 175.596 C 259.933 178.084,255.876 182.343,253.617 184.842 C 251.810 186.839,252.089 186.530,250.439 188.369 C 249.657 189.241,248.942 190.038,248.850 190.140 C 248.758 190.242,248.193 190.881,247.595 191.560 C 246.624 192.663,245.948 193.421,244.174 195.399 C 243.886 195.721,243.129 196.587,242.493 197.323 C 241.858 198.059,241.293 198.699,241.239 198.745 C 241.153 198.818,238.333 202.105,237.578 203.011 C 236.761 203.993,234.543 206.781,234.118 207.361 C 233.849 207.729,233.585 208.068,233.533 208.114 C 233.096 208.496,229.483 213.857,228.402 215.726 C 227.126 217.931,226.961 218.239,225.755 220.661 C 223.269 225.653,221.166 232.305,221.163 235.187 L 221.163 235.744 223.881 234.336 C 227.146 232.645,231.576 230.001,235.238 227.557 C 236.717 226.570,238.053 225.688,238.208 225.596 C 238.580 225.376,240.153 224.264,243.870 221.596 C 248.475 218.290,248.657 218.158,249.020 217.851 C 249.206 217.694,249.658 217.341,250.024 217.067 C 250.390 216.792,250.803 216.475,250.941 216.361 C 251.079 216.248,252.472 215.162,254.036 213.948 C 255.600 212.734,256.918 211.694,256.964 211.638 C 257.010 211.581,257.574 211.125,258.218 210.623 C 258.862 210.122,259.427 209.671,259.473 209.623 C 259.519 209.575,260.121 209.084,260.811 208.533 C 261.501 207.982,262.254 207.369,262.484 207.170 C 262.714 206.971,263.825 206.048,264.952 205.119 C 268.603 202.109,271.098 200.031,271.184 199.929 C 271.230 199.874,273.074 198.326,275.282 196.490 C 277.491 194.655,279.335 193.111,279.381 193.059 C 279.567 192.852,282.622 190.488,284.902 188.787 C 288.784 185.889,293.101 183.114,298.033 180.344 C 302.057 178.083,307.613 175.671,312.625 174.008 C 315.697 172.989,316.218 172.837,320.142 171.820 C 338.696 167.012,366.601 170.419,381.774 179.345 C 382.193 179.592,382.908 180.000,383.363 180.253 C 387.214 182.393,392.936 186.761,396.106 189.981 C 397.047 190.937,397.847 191.719,397.884 191.719 C 397.972 191.719,397.924 191.189,397.073 182.769 C 396.942 181.481,396.717 179.184,396.572 177.666 C 396.006 171.757,395.992 171.674,395.506 171.293 C 395.263 171.103,394.801 170.709,394.479 170.417 C 394.157 170.125,393.141 169.250,392.221 168.471 C 391.301 167.692,390.473 166.972,390.381 166.870 C 389.599 166.007,383.309 161.166,381.909 160.351 C 381.750 160.259,380.618 159.574,379.393 158.829 C 372.086 154.387,365.705 151.619,356.671 148.972 C 355.052 148.498,351.443 147.690,348.139 147.062 C 346.729 146.794,343.806 146.402,341.029 146.109 C 338.751 145.868,327.603 145.635,326.391 145.803 M91.259 162.378 C 72.096 163.229,54.815 171.294,44.338 184.274 C 43.744 185.010,43.214 185.650,43.160 185.696 C 42.833 185.976,40.324 189.662,39.075 191.697 C 32.134 203.006,22.644 212.565,13.154 217.809 C 12.613 218.108,11.823 218.556,11.397 218.804 C 10.091 219.568,4.645 222.166,4.350 222.166 C 3.303 222.166,3.001 223.437,3.422 226.077 C 3.556 226.917,3.785 228.507,3.931 229.611 C 4.769 235.934,5.478 240.454,6.018 242.911 C 6.210 243.785,6.485 245.065,6.628 245.755 C 8.805 256.203,14.001 271.723,18.624 281.591 C 21.569 287.874,21.223 287.173,23.803 292.095 C 24.454 293.338,25.199 294.715,25.458 295.156 C 25.718 295.597,25.931 295.992,25.931 296.034 C 25.931 296.076,26.524 297.108,27.250 298.327 C 27.975 299.546,28.709 300.781,28.881 301.071 C 30.147 303.210,30.554 303.870,31.289 304.977 C 31.747 305.667,32.173 306.345,32.236 306.483 C 32.331 306.692,33.835 308.944,36.707 313.182 C 36.991 313.601,38.126 315.175,39.230 316.682 C 42.912 321.704,42.815 321.691,45.840 317.524 C 48.598 313.725,52.273 308.912,52.865 308.323 C 52.912 308.277,53.597 307.486,54.388 306.566 C 56.233 304.422,59.574 301.081,61.397 299.558 C 62.179 298.905,62.857 298.329,62.903 298.278 C 62.949 298.227,63.438 297.837,63.990 297.410 C 68.854 293.650,69.213 292.360,68.933 279.654 C 68.826 274.765,68.761 265.794,68.789 259.718 C 68.850 246.921,68.996 247.936,66.915 246.712 C 62.052 243.852,62.585 236.873,67.856 234.383 C 75.474 230.783,81.741 242.042,74.605 246.509 C 73.605 247.135,73.160 247.596,72.858 248.318 C 72.613 248.904,72.444 290.590,72.686 290.590 C 72.731 290.590,73.259 290.289,73.860 289.921 C 74.462 289.552,74.979 289.251,75.011 289.251 C 75.042 289.251,76.190 288.625,77.561 287.859 C 82.610 285.040,89.177 281.935,93.936 280.116 C 96.054 279.306,96.574 279.023,96.816 278.545 C 96.984 278.211,97.019 272.139,96.987 248.683 L 96.947 219.239 96.588 218.737 C 96.391 218.461,95.641 217.906,94.922 217.505 C 88.179 213.737,87.052 206.153,92.503 201.221 C 97.400 196.789,104.812 198.287,107.721 204.296 C 109.972 208.947,108.180 214.720,103.782 216.980 C 102.145 217.821,101.282 218.470,100.957 219.107 C 100.628 219.751,100.418 274.515,100.737 276.447 C 100.965 277.827,101.690 277.960,104.651 277.161 C 119.326 273.202,138.316 272.744,153.994 275.972 C 156.424 276.472,157.503 276.473,158.000 275.976 L 158.440 275.536 158.381 248.642 C 158.319 220.940,158.311 220.574,157.672 216.697 C 155.083 201.002,146.810 186.621,134.494 176.408 C 123.500 167.291,106.299 161.710,91.259 162.378 M342.412 235.034 L 341.865 235.522 341.782 239.676 L 341.698 243.831 322.417 243.874 L 303.137 243.916 303.137 239.848 L 303.137 235.780 302.677 235.355 C 302.041 234.767,301.700 234.680,301.070 234.943 C 300.002 235.390,299.958 235.592,299.958 240.062 L 299.958 244.084 273.620 244.081 L 247.282 244.078 246.468 244.558 C 246.020 244.822,245.319 245.226,244.910 245.456 C 244.500 245.685,243.112 246.478,241.824 247.216 C 240.535 247.955,239.143 248.748,238.729 248.980 C 238.315 249.211,237.198 249.860,236.247 250.422 C 235.297 250.983,234.489 251.443,234.452 251.443 C 234.415 251.443,233.893 251.744,233.292 252.112 C 232.690 252.480,232.168 252.781,232.131 252.781 C 232.095 252.781,231.512 253.107,230.838 253.506 C 230.163 253.904,229.272 254.420,228.858 254.652 C 221.009 259.049,216.646 261.993,216.646 262.892 C 216.646 263.118,217.517 262.953,218.423 262.554 C 219.521 262.071,220.181 261.789,220.887 261.500 C 222.549 260.821,227.809 259.704,233.208 258.884 C 234.174 258.737,235.379 258.547,235.885 258.462 C 241.657 257.492,243.588 257.467,312.673 257.470 C 347.407 257.472,379.465 257.421,383.913 257.358 L 392.000 257.244 392.413 256.589 C 393.332 255.135,394.003 253.112,394.816 249.352 C 395.094 248.064,395.430 246.558,395.562 246.006 C 395.694 245.454,395.849 244.757,395.907 244.458 L 396.012 243.915 370.653 243.915 L 345.295 243.915 345.295 239.880 L 345.295 235.845 344.645 235.196 C 343.827 234.378,343.198 234.332,342.412 235.034 M247.762 275.279 C 247.624 275.312,246.608 275.423,245.504 275.527 C 239.022 276.136,232.540 277.674,225.680 280.232 C 224.898 280.523,223.994 280.859,223.672 280.978 C 220.758 282.055,212.884 285.838,208.625 288.207 C 192.393 297.236,178.282 299.480,161.439 295.711 C 158.342 295.017,157.059 294.740,155.918 294.517 C 155.228 294.382,154.287 294.196,153.827 294.104 C 143.029 291.939,130.585 291.348,122.125 292.598 C 115.986 293.505,109.735 295.114,104.559 297.118 C 104.053 297.314,103.450 297.536,103.220 297.611 C 101.346 298.228,97.190 300.073,93.893 301.751 C 86.755 305.385,81.799 308.978,76.191 314.585 C 73.749 317.027,72.321 318.647,68.445 323.366 C 64.240 328.486,59.595 332.998,56.681 334.791 C 55.686 335.403,55.685 335.383,56.754 336.404 C 57.238 336.866,58.611 338.211,59.808 339.393 C 62.075 341.635,63.285 342.451,64.340 342.451 C 66.872 342.451,78.160 336.659,82.453 333.158 C 82.604 333.035,83.558 332.309,84.574 331.545 C 85.589 330.780,86.786 329.854,87.232 329.486 C 88.235 328.659,92.901 324.684,93.015 324.558 C 93.738 323.766,98.781 320.026,100.578 318.949 C 100.734 318.856,101.412 318.442,102.083 318.031 C 116.100 309.450,134.478 307.522,157.675 312.199 C 162.654 313.203,163.982 313.453,165.537 313.680 C 166.182 313.774,166.821 313.885,166.959 313.927 C 167.097 313.968,167.850 314.076,168.632 314.167 C 169.414 314.258,170.657 314.407,171.393 314.498 C 180.199 315.586,189.981 314.731,197.407 312.224 C 202.067 310.650,206.061 308.732,212.631 304.910 C 214.808 303.644,214.819 303.637,216.307 302.702 C 229.064 294.685,245.170 291.123,260.142 293.006 C 267.852 293.976,271.627 294.370,277.206 294.787 C 278.870 294.911,294.786 294.966,327.896 294.961 L 376.161 294.954 377.583 292.040 C 378.365 290.437,379.525 288.044,380.161 286.721 C 380.797 285.398,382.136 282.631,383.136 280.572 C 384.137 278.513,384.929 276.802,384.897 276.770 C 384.865 276.737,381.682 276.825,377.823 276.965 C 371.807 277.183,363.871 277.204,322.125 277.114 C 270.346 277.002,272.175 277.032,266.918 276.204 C 262.249 275.468,260.371 275.331,254.120 275.275 C 250.761 275.245,247.900 275.247,247.762 275.279 M248.432 310.744 C 248.294 310.775,247.428 310.888,246.508 310.995 C 238.449 311.931,229.744 315.036,222.244 319.650 C 222.063 319.761,221.577 320.057,221.163 320.307 C 220.749 320.557,219.506 321.361,218.402 322.092 C 212.606 325.931,206.536 328.898,201.589 330.312 C 191.655 333.151,183.216 333.633,171.978 332.002 C 169.257 331.608,168.476 331.478,164.868 330.821 C 163.574 330.586,162.968 330.473,159.013 329.733 C 158.001 329.544,156.909 329.348,156.587 329.299 C 156.265 329.249,155.437 329.107,154.747 328.983 C 153.285 328.720,150.512 328.329,147.553 327.969 C 129.250 325.744,111.479 331.008,99.067 342.334 C 97.086 344.141,95.245 345.886,93.015 348.068 C 89.744 351.269,88.122 352.784,86.826 353.848 C 86.228 354.339,85.701 354.787,85.655 354.843 C 85.581 354.933,84.729 355.557,82.016 357.509 C 80.925 358.293,81.026 358.568,82.854 359.817 C 83.704 360.397,85.755 361.804,87.411 362.942 C 89.067 364.081,91.649 365.845,93.149 366.862 L 95.876 368.712 97.398 367.785 C 99.752 366.351,100.701 365.558,104.391 361.946 C 111.119 355.360,113.848 353.302,119.872 350.278 C 132.808 343.782,143.475 343.408,172.982 348.416 C 176.524 349.017,180.138 349.629,181.012 349.775 C 187.269 350.822,197.654 349.655,205.712 346.998 C 209.637 345.704,220.911 340.575,222.703 339.268 C 222.953 339.086,223.192 338.938,223.235 338.938 C 223.278 338.938,223.864 338.574,224.538 338.129 C 231.740 333.379,239.255 330.395,247.428 329.042 C 249.421 328.712,250.305 328.667,254.956 328.662 C 260.751 328.655,260.453 328.625,268.089 329.984 C 275.765 331.350,274.940 331.302,289.335 331.226 C 311.374 331.110,331.106 331.177,340.844 331.401 C 349.303 331.595,350.209 331.591,350.342 331.354 C 350.422 331.209,350.583 330.994,350.698 330.874 C 350.813 330.754,351.580 329.791,352.402 328.733 C 353.225 327.675,353.941 326.771,353.995 326.725 C 354.049 326.679,354.463 326.152,354.914 325.554 C 355.366 324.956,355.781 324.429,355.836 324.383 C 355.892 324.337,356.418 323.660,357.005 322.877 C 357.593 322.095,358.122 321.418,358.181 321.372 C 358.240 321.326,359.256 320.046,360.440 318.528 C 361.623 317.010,362.897 315.391,363.271 314.931 C 363.645 314.471,364.112 313.869,364.308 313.593 L 364.664 313.091 320.122 313.141 C 270.548 313.197,276.010 313.301,269.929 312.177 C 263.754 311.036,261.196 310.796,254.621 310.739 C 251.355 310.711,248.570 310.713,248.432 310.744 M246.512 361.029 C 244.575 361.190,242.383 361.554,240.987 361.945 C 240.527 362.074,239.210 362.338,238.059 362.531 C 233.637 363.274,228.780 364.375,224.679 365.563 C 211.092 369.501,198.808 370.791,191.360 369.063 C 190.960 368.969,189.502 368.774,188.122 368.627 C 183.248 368.110,179.162 367.406,174.502 366.281 C 173.160 365.957,170.556 365.388,168.716 365.017 C 166.876 364.646,164.282 364.083,162.952 363.765 C 161.623 363.448,160.305 363.150,160.025 363.103 C 157.998 362.765,157.446 362.658,156.991 362.514 C 156.708 362.425,155.738 362.315,154.837 362.270 C 153.936 362.225,152.776 362.062,152.258 361.906 C 150.871 361.490,143.462 361.495,141.196 361.914 C 131.186 363.764,122.270 368.343,111.771 377.024 L 111.334 377.385 115.600 379.469 C 121.138 382.175,126.875 384.745,129.480 385.686 C 129.805 385.803,131.200 386.332,132.581 386.861 C 138.573 389.158,144.246 390.949,152.739 393.224 C 154.172 393.607,157.793 394.443,161.439 395.233 C 164.447 395.884,170.931 396.976,175.240 397.557 C 184.965 398.869,192.106 399.331,202.677 399.330 C 212.164 399.330,217.382 399.041,225.596 398.062 C 228.708 397.692,232.925 397.065,235.634 396.572 C 239.073 395.945,241.588 395.460,242.660 395.219 C 244.761 394.745,247.993 393.973,248.934 393.721 C 249.440 393.585,250.719 393.243,251.777 392.960 C 253.638 392.463,255.497 391.925,258.469 391.023 C 260.194 390.499,264.641 389.030,265.186 388.803 C 265.402 388.714,266.445 388.329,267.503 387.948 C 268.561 387.568,269.766 387.118,270.180 386.948 C 270.594 386.779,271.798 386.303,272.857 385.890 C 278.652 383.631,288.814 378.909,292.932 376.563 C 293.438 376.274,294.191 375.855,294.605 375.630 C 295.019 375.406,295.471 375.152,295.609 375.066 C 295.747 374.980,296.688 374.411,297.700 373.802 C 299.947 372.449,303.640 370.000,303.556 369.916 C 303.523 369.883,302.267 369.712,300.765 369.535 C 294.928 368.850,285.835 367.054,278.795 365.195 C 272.405 363.507,264.027 361.874,260.393 361.608 C 259.565 361.547,257.796 361.394,256.462 361.266 C 253.151 360.951,248.727 360.845,246.512 361.029 " stroke="none" fill="#0c2c3d" fill-rule="evenodd"></path><path id="path4" d="M91.079 83.480 C 91.079 85.366,91.103 86.138,91.133 85.194 C 91.163 84.251,91.163 82.708,91.133 81.765 C 91.103 80.822,91.079 81.593,91.079 83.480 M218.714 148.139 C 218.715 149.059,218.743 149.414,218.777 148.928 C 218.811 148.442,218.810 147.689,218.776 147.255 C 218.742 146.821,218.714 147.219,218.714 148.139 M328.565 237.474 C 328.878 237.796,329.171 238.059,329.217 238.059 C 329.263 238.059,329.045 237.796,328.733 237.474 C 328.421 237.152,328.128 236.888,328.082 236.888 C 328.036 236.888,328.253 237.152,328.565 237.474 M280.774 244.040 C 284.346 244.065,290.143 244.065,293.655 244.040 C 297.168 244.015,294.245 243.994,287.160 243.994 C 280.075 243.994,277.201 244.015,280.774 244.040 M217.559 341.920 C 208.255 346.635,202.385 348.554,193.308 349.848 C 190.896 350.192,182.509 350.135,180.510 349.760 C 178.715 349.424,172.541 348.357,171.142 348.140 C 170.636 348.062,168.603 347.732,166.625 347.406 C 160.019 346.319,156.753 345.896,151.401 345.435 C 147.950 345.137,138.030 345.136,135.675 345.432 C 123.625 346.950,115.051 351.520,104.057 362.285 C 100.507 365.761,99.743 366.397,97.398 367.834 C 96.633 368.302,96.069 368.719,96.143 368.762 C 96.217 368.804,96.692 369.066,97.198 369.344 C 97.704 369.622,99.097 370.393,100.293 371.058 C 101.489 371.723,103.898 373.059,105.646 374.026 C 107.394 374.992,109.411 376.116,110.128 376.523 L 111.432 377.263 112.914 376.019 C 119.171 370.770,125.707 366.841,132.071 364.503 C 135.214 363.349,135.820 363.152,137.911 362.611 C 142.662 361.380,148.942 361.132,152.990 362.015 C 153.450 362.115,154.479 362.230,155.275 362.269 C 156.072 362.308,157.126 362.454,157.617 362.592 C 158.109 362.730,158.887 362.892,159.348 362.952 C 159.808 363.012,161.276 363.322,162.610 363.641 C 163.944 363.961,166.519 364.519,168.333 364.883 C 170.146 365.246,172.735 365.810,174.085 366.135 C 179.100 367.344,181.843 367.832,187.704 368.558 C 189.866 368.825,192.463 369.171,193.476 369.326 C 201.485 370.551,211.359 369.279,226.182 365.112 C 229.118 364.286,233.517 363.288,236.470 362.778 C 237.850 362.540,239.770 362.160,240.736 361.933 C 246.044 360.691,249.243 360.604,258.971 361.433 C 263.940 361.856,271.243 363.134,275.701 364.359 C 278.836 365.221,284.087 366.496,286.742 367.041 C 294.845 368.705,295.566 368.834,299.872 369.386 C 303.600 369.864,303.747 369.860,304.726 369.241 C 305.186 368.951,305.694 368.667,305.855 368.611 C 306.016 368.555,306.148 368.452,306.148 368.382 C 306.148 368.312,306.374 368.161,306.650 368.047 C 306.926 367.933,307.152 367.773,307.152 367.692 C 307.152 367.611,307.271 367.545,307.417 367.545 C 307.632 367.545,308.986 366.714,309.327 366.374 C 309.373 366.328,309.674 366.148,309.996 365.974 C 310.318 365.800,310.788 365.466,311.041 365.232 C 311.294 364.997,311.501 364.866,311.501 364.940 C 311.501 365.078,312.674 364.253,312.859 363.985 C 312.915 363.903,313.028 363.846,313.109 363.859 C 313.191 363.871,313.484 363.702,313.760 363.483 C 314.036 363.264,314.789 362.717,315.433 362.268 C 316.077 361.820,316.741 361.299,316.909 361.111 C 317.077 360.923,317.162 360.882,317.097 361.020 C 317.033 361.159,317.180 361.065,317.425 360.813 C 317.669 360.561,318.093 360.239,318.366 360.098 C 318.639 359.956,318.862 359.767,318.862 359.678 C 318.862 359.588,318.949 359.515,319.054 359.515 C 319.221 359.515,320.267 358.731,320.908 358.127 C 321.025 358.016,321.319 357.823,321.561 357.699 C 321.803 357.574,322.404 357.103,322.897 356.653 C 323.389 356.203,323.836 355.834,323.890 355.834 C 323.944 355.834,324.223 355.627,324.510 355.374 C 324.796 355.121,325.351 354.651,325.742 354.329 C 326.134 354.007,326.665 353.542,326.924 353.296 C 327.183 353.050,327.394 352.874,327.394 352.905 C 327.394 352.974,328.279 352.234,328.990 351.568 C 329.286 351.292,329.768 350.878,330.063 350.648 C 331.596 349.451,331.635 349.306,330.489 349.090 C 330.213 349.038,329.649 348.919,329.235 348.826 C 328.765 348.720,326.373 348.686,322.877 348.736 C 319.795 348.780,310.573 348.846,302.384 348.883 C 294.195 348.920,285.387 348.967,282.811 348.988 C 280.234 349.008,277.486 348.974,276.704 348.913 C 275.922 348.851,274.517 348.766,273.581 348.724 C 272.645 348.682,271.478 348.610,270.988 348.563 C 270.497 348.516,269.682 348.440,269.176 348.395 C 268.670 348.350,268.105 348.283,267.921 348.247 C 267.538 348.172,265.860 347.960,264.994 347.878 C 264.672 347.848,264.032 347.768,263.572 347.701 C 263.112 347.634,262.547 347.573,262.317 347.566 C 262.087 347.559,261.861 347.507,261.815 347.451 C 261.744 347.363,260.745 347.228,259.138 347.088 C 258.908 347.068,258.682 347.002,258.636 346.942 C 258.590 346.881,258.139 346.794,257.633 346.747 C 257.127 346.701,256.694 346.647,256.671 346.627 C 256.611 346.576,256.477 346.549,255.542 346.401 C 255.082 346.328,254.269 346.157,253.736 346.021 C 253.203 345.885,252.676 345.806,252.565 345.846 C 252.454 345.886,252.239 345.855,252.088 345.778 C 251.936 345.700,251.485 345.599,251.084 345.553 C 250.683 345.508,250.064 345.399,249.708 345.312 C 249.352 345.225,248.956 345.193,248.830 345.242 C 248.703 345.291,248.599 345.252,248.599 345.157 C 248.599 345.061,248.392 344.983,248.139 344.983 C 247.886 344.983,247.528 344.943,247.344 344.895 C 245.940 344.522,244.862 344.300,244.123 344.231 C 243.647 344.187,243.191 344.110,243.111 344.061 C 242.836 343.890,240.394 343.440,240.245 343.532 C 240.163 343.582,240.070 343.556,240.039 343.473 C 240.009 343.390,239.569 343.285,239.063 343.239 C 238.557 343.194,238.030 343.114,237.892 343.063 C 237.677 342.982,237.170 342.887,236.052 342.716 C 235.914 342.695,235.688 342.631,235.550 342.574 C 235.246 342.449,233.693 342.147,232.837 342.048 C 232.495 342.008,232.156 341.939,232.084 341.895 C 232.012 341.851,231.690 341.773,231.368 341.722 C 231.046 341.670,230.230 341.512,229.555 341.370 C 228.879 341.227,228.258 341.153,228.174 341.205 C 228.090 341.257,228.022 341.230,228.022 341.144 C 228.022 341.020,226.863 340.792,225.763 340.700 C 225.671 340.692,225.518 340.636,225.422 340.576 C 225.326 340.516,224.949 340.428,224.585 340.380 C 224.221 340.333,223.735 340.245,223.505 340.186 C 221.902 339.773,221.651 339.846,217.559 341.920 " stroke="none" fill="#669cbc" fill-rule="evenodd"></path></g></svg>